<svg width="400" height="300" xmlns="http://www.w3.org/2000/svg">
  <defs>
    <linearGradient id="bg" x1="0%" y1="0%" x2="100%" y2="100%">
      <stop offset="0%" style="stop-color:#1a1a2e;stop-opacity:1" />
      <stop offset="100%" style="stop-color:#16213e;stop-opacity:1" />
    </linearGradient>
  </defs>
  
  <!-- Background -->
  <rect width="400" height="300" fill="url(#bg)"/>
  
  <!-- Header -->
  <rect x="20" y="20" width="360" height="60" rx="10" fill="#ff4444" opacity="0.8"/>
  <text x="200" y="50" text-anchor="middle" fill="white" font-family="Arial, sans-serif" font-size="16" font-weight="bold">🔫 Wapen Dealer Tracker</text>
  
  <!-- Stats Cards -->
  <rect x="30" y="100" width="80" height="60" rx="8" fill="rgba(255,255,255,0.1)" stroke="rgba(255,255,255,0.2)"/>
  <text x="70" y="125" text-anchor="middle" fill="#ff4444" font-family="Arial, sans-serif" font-size="14" font-weight="bold">127</text>
  <text x="70" y="145" text-anchor="middle" fill="#ccc" font-family="Arial, sans-serif" font-size="10">Verkopen</text>
  
  <rect x="120" y="100" width="80" height="60" rx="8" fill="rgba(255,255,255,0.1)" stroke="rgba(255,255,255,0.2)"/>
  <text x="160" y="125" text-anchor="middle" fill="#ff4444" font-family="Arial, sans-serif" font-size="14" font-weight="bold">$2.5M</text>
  <text x="160" y="145" text-anchor="middle" fill="#ccc" font-family="Arial, sans-serif" font-size="10">Omzet</text>
  
  <rect x="210" y="100" width="80" height="60" rx="8" fill="rgba(255,255,255,0.1)" stroke="rgba(255,255,255,0.2)"/>
  <text x="250" y="125" text-anchor="middle" fill="#ff4444" font-family="Arial, sans-serif" font-size="14" font-weight="bold">45</text>
  <text x="250" y="145" text-anchor="middle" fill="#ccc" font-family="Arial, sans-serif" font-size="10">Klanten</text>
  
  <rect x="300" y="100" width="80" height="60" rx="8" fill="rgba(255,255,255,0.1)" stroke="rgba(255,255,255,0.2)"/>
  <text x="340" y="125" text-anchor="middle" fill="#4ecdc4" font-family="Arial, sans-serif" font-size="14" font-weight="bold">$1.8M</text>
  <text x="340" y="145" text-anchor="middle" fill="#ccc" font-family="Arial, sans-serif" font-size="10">Winst</text>
  
  <!-- Main Card -->
  <rect x="30" y="180" width="340" height="100" rx="15" fill="rgba(255,255,255,0.1)" stroke="rgba(255,255,255,0.2)"/>
  <text x="50" y="205" fill="#ff4444" font-family="Arial, sans-serif" font-size="14" font-weight="bold">Nieuwe Bestelling</text>
  
  <!-- Form Elements -->
  <rect x="50" y="215" width="120" height="25" rx="5" fill="rgba(255,255,255,0.05)" stroke="rgba(255,255,255,0.3)"/>
  <text x="55" y="232" fill="#ccc" font-family="Arial, sans-serif" font-size="10">Klant Naam</text>
  
  <rect x="180" y="215" width="100" height="25" rx="5" fill="rgba(255,255,255,0.05)" stroke="rgba(255,255,255,0.3)"/>
  <text x="185" y="232" fill="#ccc" font-family="Arial, sans-serif" font-size="10">Wapen Type</text>
  
  <rect x="290" y="215" width="60" height="25" rx="5" fill="#ff4444"/>
  <text x="320" y="232" text-anchor="middle" fill="white" font-family="Arial, sans-serif" font-size="10" font-weight="bold">Toevoegen</text>
  
  <!-- Inventory Panel -->
  <rect x="50" y="250" width="100" height="25" rx="5" fill="rgba(255,255,255,0.05)" stroke="rgba(255,255,255,0.3)"/>
  <text x="55" y="267" fill="#ff5656" font-family="Arial, sans-serif" font-size="10" font-weight="bold">📦 Voorraad</text>
</svg>